<svg id="visual" viewBox="0 0 960 540" width="960" height="540" xmlns="http://www.w3.org/2000/svg" xmlns:xlink="http://www.w3.org/1999/xlink" version="1.1"><rect width="960" height="540" fill="#0066FF"></rect><g><g transform="translate(275 182)"><path d="M33.4 -21.6C45.5 -11.5 59 2.6 58.3 16.4C57.6 30.2 42.7 43.9 27.3 48C11.9 52.1 -4 46.6 -19.1 39.4C-34.3 32.2 -48.9 23.4 -55.4 8.6C-62 -6.1 -60.5 -26.6 -50 -36.4C-39.4 -46.1 -19.7 -45.1 -4.5 -41.5C10.6 -37.9 21.3 -31.7 33.4 -21.6Z" fill="#F7760E"></path></g><g transform="translate(398 475)"><path d="M30.6 -23.6C37.7 -15.5 40.2 -2.9 37.1 7.7C34.1 18.2 25.5 26.6 14.9 32.3C4.3 37.9 -8.4 40.7 -16.4 36.1C-24.4 31.4 -27.8 19.3 -30.6 6.9C-33.5 -5.4 -35.9 -18 -30.7 -25.6C-25.5 -33.2 -12.8 -35.9 -0.5 -35.5C11.8 -35.1 23.5 -31.6 30.6 -23.6Z" fill="#F7760E"></path></g><g transform="translate(869 223)"><path d="M16.4 -10.7C21.6 -6.6 26.5 0.3 25.8 7.1C25.2 13.8 19.2 20.5 12.1 23.1C5 25.8 -3 24.4 -10.1 21C-17.1 17.5 -23.2 12.1 -25.7 4.8C-28.2 -2.5 -27.2 -11.6 -22.3 -15.7C-17.4 -19.8 -8.7 -18.8 -1.5 -17.6C5.6 -16.3 11.2 -14.9 16.4 -10.7Z" fill="#F7760E"></path></g><g transform="translate(147 292)"><path d="M16.8 -13.2C21.6 -7.3 25.4 -0.3 24.8 7.1C24.3 14.5 19.4 22.3 12.5 25.4C5.6 28.5 -3.2 26.8 -9.3 22.6C-15.4 18.4 -18.6 11.7 -20.7 4.3C-22.7 -3.1 -23.4 -11.2 -19.8 -16.9C-16.1 -22.5 -8.1 -25.7 -1.1 -24.9C6 -24 11.9 -19.1 16.8 -13.2Z" fill="#F7760E"></path></g><g transform="translate(770 399)"><path d="M26.2 -22C32.1 -13.5 33.8 -2.7 32.3 9C30.9 20.6 26.5 33.2 17.5 38.4C8.4 43.5 -5.2 41.3 -14.7 35C-24.2 28.7 -29.5 18.3 -30.1 8.9C-30.6 -0.6 -26.4 -9.1 -20.6 -17.6C-14.7 -26 -7.4 -34.4 1.4 -35.5C10.2 -36.7 20.3 -30.5 26.2 -22Z" fill="#F7760E"></path></g><g transform="translate(633 189)"><path d="M42 -32.2C49.4 -24.2 46.9 -7.1 43 9.8C39.2 26.7 34 43.3 22.6 50C11.1 56.6 -6.5 53.5 -19.4 45.3C-32.3 37.2 -40.4 24.1 -42.3 11.1C-44.1 -2 -39.6 -15 -31.5 -23.2C-23.5 -31.4 -11.7 -34.6 2.8 -36.9C17.3 -39.1 34.6 -40.3 42 -32.2Z" fill="#F7760E"></path></g><g transform="translate(460 82)"><path d="M19.7 -14.4C24 -10.3 24.9 -2.2 22.6 4C20.2 10.1 14.6 14.3 9 15.8C3.5 17.4 -1.9 16.3 -6.4 13.9C-10.9 11.5 -14.4 7.8 -15.8 3.2C-17.2 -1.5 -16.4 -7 -13.5 -10.8C-10.5 -14.7 -5.2 -16.8 1.2 -17.8C7.7 -18.8 15.4 -18.6 19.7 -14.4Z" fill="#F7760E"></path></g><g transform="translate(793 52)"><path d="M39.9 -31.4C49.1 -20.3 52.2 -3.8 47.7 8.8C43.1 21.4 31 30.2 17.9 36.2C4.7 42.2 -9.3 45.4 -22.5 41.2C-35.8 37 -48.1 25.4 -52.1 11C-56.2 -3.5 -51.9 -20.7 -41.8 -32.1C-31.7 -43.4 -15.9 -48.9 -0.3 -48.7C15.3 -48.5 30.7 -42.6 39.9 -31.4Z" fill="#F7760E"></path></g><g transform="translate(917 499)"><path d="M22.6 -19.3C26.5 -13.1 25 -3.9 23.3 6C21.6 15.9 19.7 26.4 12.9 31.4C6.2 36.5 -5.5 36 -14.4 31.2C-23.4 26.4 -29.7 17.3 -30.2 8.8C-30.7 0.2 -25.3 -7.9 -19.3 -14.5C-13.3 -21.2 -6.6 -26.5 1.3 -27.6C9.3 -28.6 18.7 -25.5 22.6 -19.3Z" fill="#F7760E"></path></g><g transform="translate(598 477)"><path d="M29.2 -22.4C35.9 -14.8 38.2 -2.8 35.5 7.7C32.8 18.2 25.1 27.2 15.9 30.6C6.8 34.1 -3.8 32 -14.1 27.7C-24.3 23.3 -34.1 16.7 -35.2 8.9C-36.3 1.1 -28.7 -7.9 -21.4 -15.7C-14.1 -23.4 -7 -30 2.1 -31.6C11.2 -33.3 22.4 -30.1 29.2 -22.4Z" fill="#F7760E"></path></g><g transform="translate(53 105)"><path d="M21.2 -20.2C25.4 -11.7 25.2 -3 23.5 5.7C21.8 14.5 18.6 23.2 12.6 26.2C6.5 29.2 -2.4 26.3 -9.6 22C-16.8 17.8 -22.3 12.1 -23.9 5.3C-25.6 -1.4 -23.3 -9.1 -18.7 -17.7C-14.1 -26.3 -7 -35.8 0.7 -36.4C8.5 -37 17.1 -28.7 21.2 -20.2Z" fill="#F7760E"></path></g><g transform="translate(66 474)"><path d="M16.9 -14.4C20.9 -8.4 22.5 -1.4 21.5 5.6C20.5 12.7 16.7 19.8 10.7 23C4.7 26.2 -3.6 25.4 -9.8 21.8C-16 18.3 -20.2 11.9 -21.5 5.2C-22.8 -1.6 -21.3 -8.7 -17.2 -14.7C-13.2 -20.7 -6.6 -25.7 -0.1 -25.6C6.4 -25.5 12.8 -20.4 16.9 -14.4Z" fill="#F7760E"></path></g><g transform="translate(476 274)"><path d="M44.2 -31.4C54.6 -22.2 58.6 -3.9 54.4 11.6C50.2 27.1 37.8 39.9 24.1 44.3C10.4 48.7 -4.6 44.8 -14.7 37.3C-24.7 29.9 -29.7 18.9 -32.8 6.9C-36 -5 -37.3 -17.9 -31.5 -26C-25.7 -34.1 -12.9 -37.5 2 -39.1C16.9 -40.7 33.8 -40.6 44.2 -31.4Z" fill="#F7760E"></path></g><g transform="translate(952 90)"><path d="M42.6 -32.1C52.4 -21.7 55.5 -4.2 52.6 13.5C49.8 31.1 40.9 48.9 27.8 53.7C14.6 58.5 -2.9 50.4 -18 41.6C-33.1 32.7 -45.9 23 -50.9 9.3C-55.9 -4.5 -53.1 -22.3 -43.4 -32.7C-33.6 -43.1 -16.8 -46 -0.2 -45.8C16.4 -45.7 32.8 -42.5 42.6 -32.1Z" fill="#F7760E"></path></g><g transform="translate(636 14)"><path d="M28 -25.5C35.4 -13.2 39.7 -1.6 37.1 8C34.6 17.5 25.1 25 13.9 31.3C2.7 37.6 -10.2 42.8 -21.7 39.4C-33.3 36 -43.5 24.2 -46.5 10.7C-49.5 -2.8 -45.3 -17.8 -36.4 -30.5C-27.4 -43.1 -13.7 -53.4 -1.7 -52.1C10.4 -50.8 20.7 -37.8 28 -25.5Z" fill="#F7760E"></path></g><g transform="translate(205 23)"><path d="M20.2 -15.7C25.9 -9.1 29.7 -0.7 28.1 6.3C26.4 13.4 19.1 19 11.4 22.2C3.7 25.3 -4.6 26 -11.5 23C-18.4 20 -24 13.4 -25.7 5.8C-27.4 -1.7 -25.4 -10.1 -20.4 -16.5C-15.5 -22.9 -7.8 -27.2 -0.2 -27C7.3 -26.9 14.6 -22.2 20.2 -15.7Z" fill="#F7760E"></path></g><g transform="translate(236 535)"><path d="M27.9 -21.8C34.7 -13.7 37.8 -2.2 34.7 6.5C31.6 15.2 22.3 21.1 12.8 25C3.4 28.9 -6.2 30.9 -12.8 27.4C-19.3 23.9 -22.7 14.9 -24.2 6.2C-25.6 -2.5 -25.1 -11 -20.7 -18.5C-16.3 -26 -8.2 -32.5 1.2 -33.4C10.5 -34.4 21.1 -29.8 27.9 -21.8Z" fill="#F7760E"></path></g><g transform="translate(325 334)"><path d="M23.7 -20.4C28.9 -12.4 30 -2.6 27.9 6.2C25.7 15.1 20.3 23.1 11.8 28.8C3.3 34.5 -8.3 38 -15.7 33.9C-23.1 29.9 -26.3 18.3 -27.2 8C-28.2 -2.4 -27 -11.4 -22.1 -19.4C-17.2 -27.4 -8.6 -34.2 0.3 -34.5C9.2 -34.7 18.5 -28.4 23.7 -20.4Z" fill="#F7760E"></path></g></g></svg>