<?xml version="1.0" encoding="utf-8"?>
<svg viewBox="0 0 35 35" width="35px" height="35px" fill="none" xmlns="http://www.w3.org/2000/svg">
  <path d="M 25.287 7.97 C 23.369 8.61 22.445 9.758 21.816 11.546 C 21.654 12.024 21.248 12.552 20.791 12.908 L 22.364 14.595 L 17.372 11.099 L 3.592 1.467 C 3.592 1.467 4.586 7.929 4.931 10.307 C 5.175 11.983 5.591 12.735 6.91 13.497 L 7.438 13.782 L 9.711 14.981 L 8.361 14.28 L 14.591 17.683 L 14.551 17.775 L 7.844 14.666 C 8.199 15.885 8.889 18.232 9.183 19.268 C 9.498 20.386 9.853 20.793 10.938 21.189 L 12.937 21.92 L 14.175 21.433 L 12.603 22.479 L 4.739 32.467 C 9.964 27.61 14.389 25.883 17.625 24.471 C 21.755 22.682 24.241 21.534 25.865 17.409 C 27.022 14.513 27.925 10.805 29.071 9.372 L 31.517 6.242 C 31.517 6.242 26.453 7.584 25.287 7.97 Z" fill="#3F00A5"/>
</svg>